<?xml version="1.0" encoding="UTF-8"?>
<!DOCTYPE svg PUBLIC "-//W3C//DTD SVG 1.1//EN" "http://www.w3.org/Graphics/SVG/1.1/DTD/svg11.dtd">
<!-- Creator: CorelDRAW 2018 -->
<svg xmlns="http://www.w3.org/2000/svg" xml:space="preserve" width="212mm" height="217.001mm" version="1.1" style="shape-rendering:geometricPrecision; text-rendering:geometricPrecision; image-rendering:optimizeQuality; fill-rule:evenodd; clip-rule:evenodd"
viewBox="0 0 212 217.0008"
 xmlns:xlink="http://www.w3.org/1999/xlink">
 <defs>
  <style type="text/css">
   <![CDATA[
    .fil1 {fill:#FEFEFE;fill-rule:nonzero}
    .fil0 {fill:#0097D6;fill-rule:nonzero}
   ]]>
  </style>
 </defs>
 <g id="Layer_x0020_1">
  <metadata id="CorelCorpID_0Corel-Layer"/>
  <g id="_1098741840">
   <path class="fil0" d="M90.0621 155.5323c0,-11.9469 -9.6887,-21.6356 -21.6356,-21.6356 -11.9469,0 -21.6356,9.6887 -21.6356,21.6356 0,11.9469 9.6887,21.6321 21.6356,21.6321 11.9469,0 21.6356,-9.6851 21.6356,-21.6321z"/>
   <g>
    <path class="fil0" d="M133.3297 106.9862c0,-11.9469 -9.6887,-21.6356 -21.6356,-21.6356 -11.9469,0 -21.6321,9.6887 -21.6321,21.6356 0,11.9469 9.6851,21.6344 21.6321,21.6344 11.9469,0 21.6356,-9.6875 21.6356,-21.6344z"/>
    <path class="fil0" d="M70.0127 134.5971c0,0 20.7533,7.0335 21.808,-19.7009l10.552 3.8717 5.6327 9.8493c0,0 -19.7009,-2.4614 -20.4072,16.8852l-17.5856 -10.9052z"/>
   </g>
   <g>
    <path class="fil0" d="M176.5986 58.0906c0,-11.9481 -9.6887,-21.6356 -21.6344,-21.6356 -11.9469,0 -21.6344,9.6875 -21.6344,21.6356 0,11.9458 9.6875,21.6344 21.6344,21.6344 11.9458,0 21.6344,-9.6887 21.6344,-21.6344z"/>
    <path class="fil0" d="M113.2827 85.7014c0,0 20.7509,7.0323 21.8069,-19.7009l10.5532 3.8717 5.6304 9.8481c0,0 -19.7009,-2.4614 -20.4049,16.8863l-17.5856 -10.9052z"/>
   </g>
   <g>
    <path class="fil0" d="M196.6125 25.4565c0,-6.3556 -5.152,-11.5135 -11.5147,-11.5135 -6.3567,0 -11.5087,5.1579 -11.5087,11.5135 0,6.3567 5.152,11.5147 11.5087,11.5147 6.3626,0 11.5147,-5.1579 11.5147,-11.5147z"/>
    <path class="fil0" d="M162.9201 40.1495c0,0 11.0422,3.7429 11.6032,-10.4835l5.6162 2.061 2.9965 5.2406c0,0 -10.4824,-1.3087 -10.858,8.9859l-9.3579 -5.804z"/>
   </g>
   <g>
    <path class="fil0" d="M26.7404 189.3179c0,6.3567 5.152,11.5147 11.5147,11.5147 6.3556,0 11.5076,-5.1579 11.5076,-11.5147 0,-6.3556 -5.152,-11.5147 -11.5076,-11.5147 -6.3626,0 -11.5147,5.1591 -11.5147,11.5147z"/>
    <path class="fil0" d="M60.4316 174.6261c0,0 -11.0446,-3.7441 -11.6032,10.4824l-5.615 -2.0599 -2.9977 -5.2406c0,0 10.4835,1.3075 10.8591,-8.9859l9.3568 5.804z"/>
   </g>
  </g>
  <g id="_683453064">
   <path class="fil1" d="M90.0621 59.2481c0,11.9458 -9.6887,21.6344 -21.6356,21.6344 -11.9469,0 -21.6356,-9.6887 -21.6356,-21.6344 0,-11.9481 9.6887,-21.6332 21.6356,-21.6332 11.9469,0 21.6356,9.6851 21.6356,21.6332z"/>
   <path class="fil1" d="M90.0621 59.2481l-12.6674 0c-0.0071,2.5158 -0.9839,4.6784 -2.6292,6.3402 -1.6618,1.6453 -3.8256,2.6221 -6.339,2.6303 -2.5158,-0.0083 -4.6796,-0.985 -6.3461,-2.6303 -1.6406,-1.6618 -2.6162,-3.8244 -2.6256,-6.3402 0.0094,-2.5146 0.985,-4.6784 2.6256,-6.3437 1.6665,-1.6406 3.8303,-2.6173 6.3461,-2.6256 2.5134,0.0083 4.6772,0.985 6.339,2.6256 1.6453,1.6654 2.6221,3.8292 2.6292,6.3437l12.6674 0 12.6627 0c0.0083,-9.4312 -3.8587,-18.084 -10.0465,-24.2529 -6.1678,-6.1878 -14.8206,-10.0524 -24.2518,-10.0465 -9.4324,-0.0059 -18.0864,3.8587 -24.2518,10.0465 -6.1902,6.1689 -10.0548,14.8218 -10.0477,24.2529 -0.0071,9.4324 3.8575,18.0852 10.0477,24.2506 6.1654,6.1902 14.8194,10.056 24.2518,10.0477 9.4312,0.0083 18.084,-3.8575 24.2518,-10.0477 6.1878,-6.1654 10.0548,-14.8182 10.0465,-24.2506l-12.6627 0z"/>
   <path class="fil1" d="M133.3297 107.7941c0,11.9458 -9.6887,21.6344 -21.6356,21.6344 -11.9469,0 -21.6321,-9.6887 -21.6321,-21.6344 0,-11.9469 9.6851,-21.6356 21.6321,-21.6356 11.9469,0 21.6356,9.6887 21.6356,21.6356z"/>
   <path class="fil1" d="M133.3297 107.7941l-12.6639 0c-0.0094,2.5158 -0.985,4.6784 -2.6303,6.3402 -1.6618,1.6453 -3.8256,2.6221 -6.3414,2.6303 -2.5134,-0.0083 -4.6772,-0.985 -6.3437,-2.6303 -1.6406,-1.6618 -2.6173,-3.8244 -2.6256,-6.3402 0.0083,-2.5146 0.985,-4.6807 2.6256,-6.3437 1.6665,-1.6406 3.8303,-2.6197 6.3437,-2.628 2.5158,0.0083 4.6796,0.9874 6.3414,2.628 1.6453,1.663 2.6209,3.8292 2.6303,6.3437l12.6639 0 12.6639 0c0.0071,-9.4312 -3.8599,-18.0864 -10.0477,-24.2529 -6.1666,-6.1867 -14.8194,-10.0548 -24.2518,-10.0465 -9.4312,-0.0083 -18.084,3.8599 -24.2518,10.0465 -6.1878,6.1666 -10.0548,14.8218 -10.0477,24.2529 -0.0071,9.4324 3.8599,18.0852 10.0477,24.2518 6.1678,6.1867 14.8206,10.0548 24.2518,10.0465 9.4324,0.0083 18.0852,-3.8599 24.2518,-10.0465 6.1878,-6.1666 10.0548,-14.8194 10.0477,-24.2518l-12.6639 0z"/>
   <path class="fil1" d="M70.0127 80.1821c0,0 20.7533,-7.0323 21.808,19.7009l10.552 -3.8717 5.6327 -9.8481c0,0 -19.7009,2.4603 -20.4072,-16.8863l-17.5856 10.9052z"/>
   <path class="fil1" d="M74.0781 92.1727l-2.6421 -7.7942 2.4355 7.8662 0.2067 -0.072 -2.6421 -7.7942 2.4355 7.8662 -0.4701 -1.5106 0.4287 1.5213 0.0413 -0.0106 -0.4701 -1.5106 0.4287 1.5213c0.0496,-0.0236 1.0642,-0.2587 1.924,-0.2469 0.5362,-0.0047 0.9874,0.078 1.1882,0.1453l0.2232 0.1016c0.0343,0.0543 0.2339,0.0839 0.7382,1.1599 0.4784,1.063 1.1197,3.2481 1.2614,6.965 0.1606,4.063 2.2323,7.7634 5.6091,10.0265 3.3768,2.2606 7.5898,2.7662 11.4072,1.3642l10.5544 -3.8693c2.7992,-1.0276 5.152,-3.0177 6.6331,-5.6032l5.6304 -9.8493c2.3823,-4.1705 2.2099,-9.3083 -0.4571,-13.3064 -2.6646,-4.0028 -7.3335,-6.1406 -12.104,-5.5441l0.861 6.9166 -0.6827 -6.9378 -0.1783 0.0213 0.861 6.9166 -0.6827 -6.9378 -0.0213 0 -0.6969 0.0248c-0.6307,0 -1.5744,-0.0614 -2.4166,-0.2339 -0.6343,-0.1287 -1.2012,-0.3142 -1.5898,-0.4996 -0.6035,-0.3012 -0.7087,-0.4323 -0.8894,-0.6768 -0.1595,-0.2634 -0.6331,-0.9425 -0.7476,-3.3744 -0.2563,-6.9886 -6.1264,-12.4501 -13.1162,-12.195 -6.9886,0.2539 -12.4513,6.1264 -12.1962,13.1162 0.1902,5.5524 1.5673,10.7446 4.0807,15.0556 1.8638,3.2292 4.317,5.8796 6.9024,7.8485 3.8906,2.974 7.9406,4.4729 11.3859,5.2985 3.4666,0.8161 6.4241,0.9803 8.5867,0.9886 1.9536,-0.0047 3.261,-0.1476 3.6744,-0.1996l-1.5673 -12.567 -10.9961 -6.2871 -3.3331 5.8382 -6.2174 2.2795 4.3618 11.8891 12.6544 -0.4996c-0.2173,-5.4579 -1.0984,-10.3017 -2.7555,-14.6292 -1.2378,-3.241 -2.9315,-6.176 -5.0174,-8.6528 -3.1205,-3.7347 -7.0878,-6.2717 -10.819,-7.6453 -3.7512,-1.3949 -7.2331,-1.7705 -10.1292,-1.7752 -5.4189,0.0343 -8.9859,1.2532 -9.8056,1.5083 -6.6237,2.2441 -10.1753,9.4335 -7.9276,16.0572 2.2417,6.626 9.4312,10.1753 16.0572,7.9264z"/>
   <path class="fil1" d="M176.5986 156.6897c0,11.9469 -9.6887,21.6344 -21.6344,21.6344 -11.9469,0 -21.6344,-9.6875 -21.6344,-21.6344 0,-11.9469 9.6875,-21.6344 21.6344,-21.6344 11.9458,0 21.6344,9.6875 21.6344,21.6344z"/>
   <path class="fil1" d="M176.5986 156.6897l-12.6651 0c-0.0071,2.5134 -0.985,4.6796 -2.6303,6.3437 -1.6618,1.6406 -3.8256,2.6185 -6.339,2.6268 -2.5158,-0.0083 -4.6796,-0.9862 -6.3461,-2.6268 -1.6406,-1.6642 -2.6173,-3.8303 -2.6244,-6.3437 0.0071,-2.5134 0.9839,-4.6796 2.6244,-6.3437 1.6665,-1.6406 3.8303,-2.6232 6.3461,-2.628 2.5134,0.0047 4.6772,0.9874 6.339,2.628 1.6453,1.6642 2.6232,3.8303 2.6303,6.3437l12.6651 0 12.6639 0c0.0083,-9.4324 -3.8587,-18.0852 -10.0465,-24.2518 -6.1666,-6.1878 -14.8218,-10.0548 -24.2518,-10.0465 -9.4335,-0.0083 -18.0852,3.8587 -24.2529,10.0465 -6.1867,6.1666 -10.0548,14.8194 -10.0454,24.2518 -0.0094,9.4335 3.8587,18.0864 10.0454,24.2518 6.1678,6.1878 14.8194,10.0513 24.2529,10.0465 9.43,0.0047 18.0852,-3.8587 24.2518,-10.0465 6.1878,-6.1654 10.0548,-14.8182 10.0465,-24.2518l-12.6639 0z"/>
   <path class="fil1" d="M113.2827 129.0777c0,0 20.7509,-7.0323 21.8069,19.7021l10.5532 -3.8729 5.6304 -9.8481c0,0 -19.7009,2.4614 -20.4049,-16.8852l-17.5856 10.904z"/>
   <path class="fil1" d="M117.3458 141.0696l-2.6374 -7.7859 2.4331 7.8556 0.2043 -0.0697 -2.6374 -7.7859 2.4331 7.8556 -0.4665 -1.5083 0.424 1.5201 0.0425 -0.0118 -0.4665 -1.5083 0.424 1.5201c0.0484,-0.0224 1.063,-0.2587 1.9264,-0.2469 0.535,-0.0035 0.9839,0.0791 1.187,0.1441l0.2209 0.1028c0.0343,0.0555 0.2362,0.0827 0.7382,1.1599 0.4784,1.063 1.1221,3.2481 1.2614,6.9662 0.1618,4.0618 2.2358,7.7634 5.6115,10.0253 3.3768,2.2618 7.5898,2.7673 11.4072,1.3642l10.552 -3.8693c2.8004,-1.0264 5.1544,-3.0177 6.6331,-5.6032l5.6327 -9.8481c2.3835,-4.1717 2.2099,-9.3083 -0.4583,-13.3076 -2.6634,-4.0028 -7.3347,-6.143 -12.1052,-5.5441l0.8634 6.913 -0.6839 -6.9343 -0.1795 0.0213 0.8634 6.913 -0.6839 -6.9343 -0.0201 0 -0.6992 0.0213c-0.6307,0.0047 -1.5732,-0.0567 -2.4142,-0.2315 -0.6343,-0.1264 -1.2036,-0.3118 -1.5921,-0.4972 -0.6012,-0.3024 -0.7087,-0.4335 -0.8894,-0.678 -0.1571,-0.2634 -0.6307,-0.9425 -0.7476,-3.3756 -0.2551,-6.9863 -6.1264,-12.4489 -13.1162,-12.1938 -6.9875,0.2551 -12.4489,6.1264 -12.1938,13.1174 0.1902,5.5524 1.5673,10.7422 4.0807,15.0544 1.8638,3.2292 4.317,5.8808 6.9001,7.8497 3.8929,2.974 7.9406,4.4729 11.3883,5.2973 3.4666,0.8161 6.4217,0.9803 8.5843,0.9898 1.9559,-0.0047 3.2634,-0.1476 3.6744,-0.2032l-1.5673 -12.5647 -10.9926 -6.2859 -3.3378 5.8371 -6.2138 2.2795 4.3607 11.8902 12.6556 -0.4996c-0.2197,-5.4579 -1.1008,-10.3028 -2.7579,-14.6304 -1.2366,-3.241 -2.9315,-6.176 -5.0174,-8.6516 -3.1205,-3.737 -7.0855,-6.2729 -10.8166,-7.6453 -3.7512,-1.3961 -7.2355,-1.7705 -10.128,-1.7764 -5.4225,0.0319 -8.9883,1.2532 -9.8091,1.5083 -6.6237,2.2441 -10.1729,9.4335 -7.9276,16.0572 2.2441,6.626 9.4335,10.1765 16.0572,7.9276z"/>
   <path class="fil1" d="M196.6125 189.3227c0,6.3556 -5.152,11.5135 -11.5147,11.5135 -6.3567,0 -11.5087,-5.1579 -11.5087,-11.5135 0,-6.3556 5.152,-11.5147 11.5087,-11.5147 6.3626,0 11.5147,5.1591 11.5147,11.5147z"/>
   <path class="fil1" d="M196.6125 189.3227l-12.6651 0 1.1504 0 -0.8114 -0.8126 -0.339 0.8126 1.1504 0 -0.8114 -0.8126 0.8114 0.8126 0 -1.1492 -0.8114 0.3366 0.8114 0.8126 0 -1.1492 0 1.1528 0.8161 -0.8161 -0.8161 -0.3366 0 1.1528 0.8161 -0.8161 -0.8126 0.8126 1.1516 0 -0.339 -0.8126 -0.8126 0.8126 1.1516 0 -1.1469 0 0.8079 0.8114 0.339 -0.8114 -1.1469 0 0.8079 0.8114 -0.8161 -0.8161 0 1.1563 0.8161 -0.3402 -0.8161 -0.8161 0 1.1563 0 -1.1516 -0.8114 0.8114 0.8114 0.3402 0 -1.1516 -0.8114 0.8114 0.8114 -0.8114 -1.1504 0 0.339 0.8114 0.8114 -0.8114 -1.1504 0 12.6651 0 12.6639 0c0.0035,-6.6367 -2.7248,-12.7584 -7.0784,-17.0954 -4.337,-4.3548 -10.4623,-7.0914 -17.1001,-7.0831 -6.6367,-0.0083 -12.7631,2.7284 -17.0942,7.0878 -4.3536,4.3323 -7.0867,10.454 -7.0796,17.0907 -0.0071,6.6367 2.726,12.7584 7.0796,17.0919 4.3311,4.3571 10.4576,7.0949 17.0942,7.0855 6.6378,0.0094 12.7631,-2.7284 17.1001,-7.0808 4.3536,-4.3382 7.0819,-10.4599 7.0784,-17.0966l-12.6639 0z"/>
   <path class="fil1" d="M162.9201 174.6296c0,0 11.0422,-3.7429 11.6032,10.4835l5.6162 -2.0599 2.9965 -5.2406c0,0 -10.4824,1.3075 -10.858,-8.9859l-9.3579 5.8028z"/>
   <path class="fil1" d="M166.9843 186.6238l-1.0099 -2.9788 0 3.2032c0.4051,-0.0272 0.1902,0.0295 1.0099,-0.2244l-1.0099 -2.9788 0 3.2032 0 -3.8646 -1.1705 3.6626c0.613,0.1902 0.9803,0.1984 1.1705,0.202l0 -3.8646 -1.1705 3.6626 1.6807 -5.2642 -3.2599 4.4528c0.5433,0.4004 1.1303,0.6685 1.5791,0.8114l1.6807 -5.2642 -3.2599 4.4528 2.6457 -3.6107 -4.1705 1.8473c0.098,0.2764 0.6874,1.1787 1.5248,1.7634l2.6457 -3.6107 -4.1705 1.8473 0.6957 -0.3095 -0.7299 0.2315 0.0343 0.078 0.6957 -0.3095 -0.7299 0.2315c0.0213,0.0532 0.1642,0.5669 0.202,1.6193 0.1606,4.0595 2.2358,7.767 5.6126,10.0253 3.3803,2.2595 7.5922,2.7673 11.4084,1.3642l5.6162 -2.0599c2.7945,-1.0264 5.1473,-3.013 6.6284,-5.6032l2.9965 -5.2406c2.3835,-4.1717 2.2099,-9.3036 -0.4535,-13.3064 -2.661,-3.9992 -7.3323,-6.1371 -12.1028,-5.5489l0.8811 7.0855 -0.4925 -7.1209 -0.3886 0.0354 0.8811 7.0855 -0.4925 -7.1209 0.0567 0.7913 0 -0.7961 -0.0567 0.0047 0.0567 0.7913 0 -0.7961 -0.0862 -0.0035 -0.0295 -0.0047 -0.3626 1.9488 0.8055 -1.7965 -0.4429 -0.1524 -0.3626 1.9488 0.8055 -1.7965 -1.9512 4.3607 3.887 -2.6988c-0.6095,-0.9036 -1.5201,-1.4941 -1.9358,-1.6618l-1.9512 4.3607 3.887 -2.6988 -3.5114 2.4355 4.0973 -1.2697c-0.0827,-0.2799 -0.2799,-0.7335 -0.5858,-1.1658l-3.5114 2.4355 4.0973 -1.2697 -1.9335 0.6012 2.0032 -0.3248 -0.0697 -0.2764 -1.9335 0.6012 2.0032 -0.3248 -0.1157 0.0165 0.1157 -0.0083 0 -0.0083 -0.1157 0.0165 0.1157 -0.0083 -0.0047 -0.0945c-0.2551,-6.9875 -6.1252,-12.4513 -13.1162,-12.1938 -6.9875,0.2551 -12.4489,6.1241 -12.1938,13.1174 0.1228,3.7512 1.0843,7.5426 2.967,10.7717 1.3984,2.4142 3.261,4.4315 5.1981,5.9067 2.9233,2.2276 5.8713,3.2941 8.2902,3.8776 2.4425,0.574 4.4492,0.6815 5.941,0.6862 1.3394,0 2.2677,-0.0992 2.6799,-0.1476l-1.5626 -12.5706 -10.995 -6.2871 -0.7004 1.2295 -1.2827 0.4701 4.3654 11.8879 12.658 -0.4972c-0.1417,-3.411 -0.6945,-6.6272 -1.8555,-9.6709 -0.8717,-2.276 -2.1036,-4.4422 -3.6697,-6.3 -2.341,-2.811 -5.4012,-4.7752 -8.217,-5.804 -2.8311,-1.0524 -5.3918,-1.3158 -7.4646,-1.3205 -3.887,0.0307 -6.3036,0.8634 -7.1197,1.1185 -6.6237,2.2417 -10.1729,9.4347 -7.9276,16.0572 2.2417,6.6237 9.4383,10.1729 16.0572,7.9276z"/>
   <path class="fil1" d="M26.7404 25.4612c0,-6.3567 5.152,-11.5147 11.5147,-11.5147 6.3556,0 11.5076,5.1579 11.5076,11.5147 0,6.3556 -5.152,11.5147 -11.5076,11.5147 -6.3626,0 -11.5147,-5.1591 -11.5147,-11.5147z"/>
   <path class="fil1" d="M26.7404 25.4612l12.6639 0 -1.1492 0 0.8114 0.8114 0.3378 -0.8114 -1.1492 0 0.8114 0.8114 -0.8114 -0.8114 0 1.1492 0.8114 -0.3378 -0.8114 -0.8114 0 1.1492 0 -1.1539 -0.8209 0.8161 0.8209 0.3378 0 -1.1539 -0.8209 0.8161 0.8173 -0.8114 -1.1516 0 0.3343 0.8114 0.8173 -0.8114 -1.1516 0 1.1516 0 -0.8173 -0.8126 -0.3343 0.8126 1.1516 0 -0.8173 -0.8126 0.8209 0.8173 0 -1.1539 -0.8209 0.3366 0.8209 0.8173 0 -1.1539 0 1.1492 0.8114 -0.8126 -0.8114 -0.3366 0 1.1492 0.8114 -0.8126 -0.8114 0.8126 1.1492 0 -0.3378 -0.8126 -0.8114 0.8126 1.1492 0 -12.6639 0 -12.6639 0c-0.0071,6.6367 2.726,12.7584 7.0772,17.0942 4.3382,4.3548 10.4623,7.0926 17.1013,7.0843 6.6367,0.0035 12.7631,-2.7295 17.0942,-7.0867 4.3524,-4.3335 7.0819,-10.4552 7.0772,-17.0919 0.0047,-6.6367 -2.7248,-12.7584 -7.0772,-17.093 -4.3311,-4.3559 -10.4576,-7.0938 -17.0942,-7.0855 -6.639,-0.0083 -12.7631,2.7295 -17.1013,7.0819 -4.3512,4.3382 -7.0843,10.4599 -7.0772,17.0966l12.6639 0z"/>
   <path class="fil1" d="M60.4316 40.1542c0,0 -11.0446,3.7429 -11.6032,-10.4835l-5.615 2.0599 -2.9977 5.2406c0,0 10.4835,-1.3075 10.8591,8.9859l9.3568 -5.8028z"/>
   <path class="fil1" d="M56.3673 28.1565l1.011 2.9776 0 -3.1996c-0.4051,0.0283 -0.1902,-0.0283 -1.011,0.222l1.011 2.9776 0 -3.1996 0 3.8658 1.1658 -3.6626c-0.6095,-0.1902 -0.9756,-0.1984 -1.1658,-0.2032l0 3.8658 1.1658 -3.6626 -1.6784 5.2595 3.2622 -4.4481c-0.5445,-0.4004 -1.1303,-0.6685 -1.5839,-0.8114l-1.6784 5.2595 3.2622 -4.4481 -2.6457 3.6107 4.1658 -1.8473c-0.0945,-0.2764 -0.6827,-1.1787 -1.5201,-1.7634l-2.6457 3.6107 4.1658 -1.8473 -0.6957 0.3106 0.7299 -0.2327 -0.0343 -0.078 -0.6957 0.3106 0.7299 -0.2327c-0.0165,-0.0532 -0.1618,-0.5634 -0.1984,-1.6193 -0.1595,-4.0595 -2.2358,-7.767 -5.6115,-10.0253 -3.3803,-2.2595 -7.5922,-2.7673 -11.4107,-1.3654l-5.6138 2.0622c-2.7945,1.0252 -5.1485,3.0118 -6.6284,5.602l-2.9965 5.2394c-2.3882,4.1729 -2.2099,9.3095 0.4571,13.3123 2.6622,3.9981 7.3371,6.1371 12.1076,5.5394l-0.8906 -7.1197 0.4972 7.1599 0.3933 -0.0402 -0.8906 -7.1197 0.4972 7.1599 -0.0602 -0.8563 0 0.861 0.0602 -0.0047 -0.0602 -0.8563 0 0.861 0.0862 0.0035 0.0295 0.0047 0.3626 -1.9536 -0.8055 1.8012 0.4429 0.1524 0.3626 -1.9536 -0.8055 1.8012 1.9512 -4.3607 -3.887 2.6988c0.6095,0.9036 1.5201,1.4941 1.9358,1.6618l1.9512 -4.3607 -3.887 2.6988 3.5067 -2.4355 -4.0926 1.2697c0.0815,0.2799 0.2799,0.7335 0.5858,1.1658l3.5067 -2.4355 -4.0926 1.2697 1.9335 -0.6012 -2.0043 0.3248 0.0709 0.2764 1.9335 -0.6012 -2.0043 0.3248 0.1122 -0.0165 -0.1122 0.0118 0 0.0047 0.1122 -0.0165 -0.1122 0.0118 0.0047 0.0909c0.2551,6.9875 6.1311,12.4513 13.1174,12.1938 6.9863,-0.2551 12.4489,-6.1288 12.1938,-13.1174 -0.1228,-3.7512 -1.0843,-7.5438 -2.967,-10.7717 -1.3984,-2.4154 -3.2634,-4.4351 -5.1993,-5.9067 -2.9221,-2.2252 -5.8701,-3.2988 -8.2902,-3.8788 -2.4461,-0.5728 -4.4492,-0.6803 -5.9398,-0.685 -1.3441,0 -2.276,0.0992 -2.6894,0.1524l1.5709 12.5658 10.9938 6.2871 0.7028 -1.2295 1.2815 -0.4701 -4.3654 -11.8879 -12.6568 0.4972c0.1406,3.4099 0.6933,6.626 1.8555,9.6721 0.8669,2.2748 2.1024,4.441 3.6697,6.2989 2.3362,2.811 5.4012,4.7741 8.2158,5.8063 2.8323,1.0488 5.3882,1.3122 7.4658,1.3169 3.8823,-0.0331 6.2989,-0.8598 7.1186,-1.1126 6.6249,-2.2465 10.1741,-9.4359 7.9323,-16.0619 -2.2477,-6.6237 -9.4371,-10.1729 -16.0619,-7.9312z"/>
  </g>
  <g id="_905102384">
   <path class="fil0" d="M90.0621 59.2481c0,11.9458 -9.6887,21.6344 -21.6356,21.6344 -11.9469,0 -21.6356,-9.6887 -21.6356,-21.6344 0,-11.9481 9.6887,-21.6332 21.6356,-21.6332 11.9469,0 21.6356,9.6851 21.6356,21.6332z"/>
   <g>
    <path class="fil0" d="M133.3297 107.7941c0,11.9458 -9.6887,21.6344 -21.6356,21.6344 -11.9469,0 -21.6321,-9.6887 -21.6321,-21.6344 0,-11.9469 9.6851,-21.6356 21.6321,-21.6356 11.9469,0 21.6356,9.6887 21.6356,21.6356z"/>
    <path class="fil0" d="M70.0127 80.1821c0,0 20.7533,-7.0323 21.808,19.7009l10.552 -3.8717 5.6327 -9.8481c0,0 -19.7009,2.4603 -20.4072,-16.8863l-17.5856 10.9052z"/>
   </g>
   <g>
    <path class="fil0" d="M176.5986 156.6897c0,11.9469 -9.6887,21.6344 -21.6344,21.6344 -11.9469,0 -21.6344,-9.6875 -21.6344,-21.6344 0,-11.9469 9.6875,-21.6344 21.6344,-21.6344 11.9458,0 21.6344,9.6875 21.6344,21.6344z"/>
    <path class="fil0" d="M113.2827 129.0777c0,0 20.7509,-7.0323 21.8069,19.7021l10.5532 -3.8729 5.6304 -9.8481c0,0 -19.7009,2.4614 -20.4049,-16.8852l-17.5856 10.904z"/>
   </g>
   <g>
    <path class="fil0" d="M196.6125 189.3227c0,6.3556 -5.152,11.5135 -11.5147,11.5135 -6.3567,0 -11.5087,-5.1579 -11.5087,-11.5135 0,-6.3556 5.152,-11.5147 11.5087,-11.5147 6.3626,0 11.5147,5.1591 11.5147,11.5147z"/>
    <path class="fil0" d="M162.9201 174.6296c0,0 11.0422,-3.7429 11.6032,10.4835l5.6162 -2.0599 2.9965 -5.2406c0,0 -10.4824,1.3075 -10.858,-8.9859l-9.3579 5.8028z"/>
   </g>
   <g>
    <path class="fil0" d="M26.7404 25.4612c0,-6.3567 5.152,-11.5147 11.5147,-11.5147 6.3556,0 11.5076,5.1579 11.5076,11.5147 0,6.3556 -5.152,11.5147 -11.5076,11.5147 -6.3626,0 -11.5147,-5.1591 -11.5147,-11.5147z"/>
    <path class="fil0" d="M60.4316 40.1542c0,0 -11.0446,3.7429 -11.6032,-10.4835l-5.615 2.0599 -2.9977 5.2406c0,0 10.4835,-1.3075 10.8591,8.9859l9.3568 -5.8028z"/>
   </g>
  </g>
 </g>
</svg>
